# xmcd
#
# Track frame offsets: 
#        150
#        21632
#        40225
#        58247
#        75582
#        94607
#        110222
#        136522
#        149817
#        166342
#        189322
#        207137
#        225207
#        249980
#        280915
#        297850
#
# Disc length: 4277 seconds
#
# Revision: 1
# Processed by: cddbd v1.5.2PL0 Copyright (c) Steve Scherf et al.
# Submitted via: ExactAudioCopyFreeDBPlugin 1.0
#
DISCID=e210b310
DTITLE=Earth, Wind and Fire - THE GREAT ARTIST BEST HIT'S
DYEAR=1900
DGENRE=Funk
TTITLE0=Fantasy
TTITLE1=Got To Get You Into My Life
TTITLE2=Love Music
TTITLE3=Getaway
TTITLE4=Can't Hide Love
TTITLE5=Sing A Song
TTITLE6=That's The Way Of The World
TTITLE7=Shining Star
TTITLE8=September
TTITLE9=Reasons
TTITLE10=Serpentine Fire
TTITLE11=In The Market Place(Interlude)／Jupiter
TTITLE12=I'll Write A Sonf For You
TTITLE13=Runnin'／Brazilian Rhyme(interlude)
TTITLE14=Magic Mind
TTITLE15=Be Ever Wonderful
EXTD=
EXTT0=
EXTT1=
EXTT2=
EXTT3=
EXTT4=
EXTT5=
EXTT6=
EXTT7=
EXTT8=
EXTT9=
EXTT10=
EXTT11=
EXTT12=
EXTT13=
EXTT14=
EXTT15=
PLAYORDER=
